# xmcd CD database file
#
# Track frame offsets:
#	150
#	19262
#	37415
#	55210
#	73182
#	93805
#	108052
#	123637
#	135480
#	152320
#
# Disc length: 2510 seconds
#
# Revision: 8
# Processed by: cddbd v1.5.2PL0 Copyright (c) Steve Scherf et al.
# Submitted via: CDex 2.23
#
DISCID=8109cc0a
DTITLE=Janis Joplin - Greatest Hits
DYEAR=1973
DGENRE=Psychedelic Rock
TTITLE0=Big Brother And The Holding Company - Piece Of My Heart
TTITLE1=Big Brother And The Holding Company - Summertime
TTITLE2=Kozmic Blues Band - Try (Just A Little Bit Harder)
TTITLE3=Full Tilt Boogie Band - Cry Baby
TTITLE4=Full Tilt Boogie Band - Me and Bobby McGee
TTITLE5=Big Brother And The Holding Company - Down On Me
TTITLE6=Full Tilt Boogie Band - Get it While You Can
TTITLE7=Big Brother And The Holding Company - Bye, Bye Baby
TTITLE8=Full Tilt Boogie Band - Move Over
TTITLE9=Full Tilt Boogie Band - Ball And Chain
EXTD=YEAR: 1973
EXTT0=Big Brother and the Holding Company
EXTT1=Big Brother and the Holding Company
EXTT2=Kozmic Blues Band
EXTT3=Full Tilt Boogie Band
EXTT4=Full Tilt Boogie Band
EXTT5=Big Brother and the Holding Company
EXTT6=Full Tilt Boogie Band
EXTT7=Big Brother and the Holding Company
EXTT8=Full Tilt Boogie Band
EXTT9=Full Tilt Boogie Band
PLAYORDER=
